<svg width="22" height="22" viewBox="0 0 22 22" fill="none" xmlns="http://www.w3.org/2000/svg">
<path d="M21 21L14.3333 14.3333L21 21ZM16.5556 8.77778C16.5556 9.79917 16.3544 10.8106 15.9635 11.7542C15.5726 12.6978 14.9997 13.5553 14.2775 14.2775C13.5553 14.9997 12.6978 15.5726 11.7542 15.9635C10.8106 16.3544 9.79917 16.5556 8.77778 16.5556C7.75639 16.5556 6.74499 16.3544 5.80135 15.9635C4.85771 15.5726 4.00029 14.9997 3.27806 14.2775C2.55582 13.5553 1.98292 12.6978 1.59205 11.7542C1.20118 10.8106 1 9.79917 1 8.77778C1 6.71498 1.81944 4.73667 3.27806 3.27806C4.73667 1.81944 6.71498 1 8.77778 1C10.8406 1 12.8189 1.81944 14.2775 3.27806C15.7361 4.73667 16.5556 6.71498 16.5556 8.77778Z" stroke="#232323" stroke-width="2" stroke-linecap="round" stroke-linejoin="round"/>
</svg>
