<svg width="36" height="30" viewBox="0 0 20 16" fill="none" xmlns="http://www.w3.org/2000/svg">
<path fill-rule="evenodd" clip-rule="evenodd" d="M18 0H2C0.90002 0 0 0.89999 0 2V14C0 15.1 0.90002 16 2 16H18C19.1 16 20 15.1 20 14V2C20 0.89999 19.1 0 18 0ZM11.88 11.3C11.1899 11.74 10.37 12 9.49 12C7.01001 12 5 9.99 5 7.5C5 5.00999 7.01001 3 9.5 3C11.99 3 14 5.00999 14 7.5C14 8.38 13.74 9.19 13.3 9.89L15.74 12.32L14.3199 13.74L11.88 11.3ZM12 7.5C12 6.12 10.88 5 9.5 5C8.12 5 7 6.12 7 7.5C7 8.88 8.12 10 9.5 10C10.88 10 12 8.88 12 7.5ZM2 14H18V2H2V14Z" fill="white" fill-opacity="0.7"/>
</svg>
