<svg xmlns="http://www.w3.org/2000/svg" viewBox="0 0 30 30">
<path class="st0" d="M9.5 27.1c11.2 0 17.4-9.3 17.4-17.4 0-0.3 0-0.5 0-0.8 1.2-0.9 2.2-1.9 3-3.2 -1.1 0.5-2.3 0.8-3.5 1 1.3-0.8 2.2-2 2.7-3.4 -1.2 0.7-2.5 1.2-3.9 1.5 -1.1-1.2-2.7-1.9-4.5-1.9 -3.4 0-6.1 2.7-6.1 6.1 0 0.5 0.1 0.9 0.2 1.4C9.7 10.1 5.2 7.7 2.2 4 1.7 4.9 1.4 6 1.4 7.1c0 2.1 1.1 4 2.7 5.1 -1 0-1.9-0.3-2.8-0.8 0 0 0 0.1 0 0.1 0 3 2.1 5.4 4.9 6 -0.5 0.1-1.1 0.2-1.6 0.2 -0.4 0-0.8 0-1.1-0.1 0.8 2.4 3 4.2 5.7 4.2 -2.1 1.6-4.7 2.6-7.6 2.6 -0.5 0-1 0-1.5-0.1C2.8 26.1 6 27.1 9.5 27.1"></path>
</svg>